<?xml version="1.0" encoding="utf-8"?>
<!-- Generator: Adobe Illustrator 21.1.0, SVG Export Plug-In . SVG Version: 6.00 Build 0)  -->
<svg version="1.1" id="Layer_1" xmlns="http://www.w3.org/2000/svg" xmlns:xlink="http://www.w3.org/1999/xlink" x="0px" y="0px"
	 viewBox="0 0 174.5 174.5" style="enable-background:new 0 0 174.5 174.5;" xml:space="preserve">
<style type="text/css">
	.st0{fill:#FFD05B;}
	.st1{fill:#FFFFFF;}
	.st2{fill:#FD8469;}
</style>
<circle class="st0" cx="87.2" cy="87.2" r="87.2"/>
<polygon class="st1" points="41.8,131.7 41.8,124.2 51.5,124.2 51.5,117.3 41.8,117.3 41.8,105.6 51.5,105.6 51.5,98.8 41.8,98.8 
	41.8,87.1 51.5,87.1 51.5,80.3 41.8,80.3 41.8,68.6 51.5,68.6 51.5,61.8 41.8,61.8 41.8,50.1 51.5,50.1 51.5,43.3 41.8,43.3 
	41.8,34 35,34 35,138.5 139.5,138.5 139.5,131.7 "/>
<g>
	<rect x="127" y="42.3" class="st2" width="12.5" height="80.6"/>
	<rect x="105.9" y="65.2" class="st2" width="12.5" height="57.7"/>
	<rect x="84.8" y="81.7" class="st2" width="12.5" height="41.3"/>
	<rect x="63.7" y="93.4" class="st2" width="12.5" height="29.5"/>
</g>
</svg>
