<?xml version="1.0" encoding="utf-8"?>
<!-- Generator: Adobe Illustrator 21.1.0, SVG Export Plug-In . SVG Version: 6.00 Build 0)  -->
<svg version="1.1" id="Layer_1" xmlns="http://www.w3.org/2000/svg" xmlns:xlink="http://www.w3.org/1999/xlink" x="0px" y="0px"
	 viewBox="0 0 252.5 252.5" style="enable-background:new 0 0 252.5 252.5;" xml:space="preserve">
<style type="text/css">
	.st0{fill:#324A5E;}
	.st1{fill:#84DBFF;}
	.st2{fill:#FF7058;}
	.st3{fill:#FFFFFF;}
</style>
<circle class="st0" cx="126.2" cy="126.2" r="126.2"/>
<polygon class="st1" points="60.1,121.8 84.9,84.9 87.8,79.8 89.8,85.4 121.8,161.4 179.2,115.2 193.8,124.5 193.8,130.9 
	179.6,121.9 119.7,170.2 86.7,92.2 64.7,124.8 "/>
<polygon class="st2" points="85.2,142.3 127,78 165.9,165.2 193.8,159.7 193.8,165.2 162.8,171.4 126.1,89.4 89.2,146.1 64,164.6 
	60.8,160.2 "/>
<g>
	<polygon class="st3" points="58.7,193.6 193.6,193.6 193.6,186.4 66,186.4 66,58.8 58.7,58.8 	"/>
	<polygon class="st3" points="190.9,176.6 190.9,203.6 209.1,190.1 	"/>
	<polygon class="st3" points="49.1,63 76.1,63 62.6,44.8 	"/>
</g>
</svg>
